<svg width="850" height="968" viewBox="0 0 850 968" fill="none" xmlns="http://www.w3.org/2000/svg">
<g opacity="0.6" clip-path="url(#clip0_50_330)">
<path d="M-157.953 356.268C-96.5771 285.781 24.6288 376.97 200.25 337.061C352.359 302.479 361.11 210.622 482.642 215.177C571.431 218.487 668.183 269.755 721.356 359.072C779.996 457.551 758.68 557.81 752.696 582.139C725.983 691.263 646.698 748.826 618.728 768.487C503.488 849.44 374.173 835.254 312.135 828.479C79.0998 802.957 -170.386 636.583 -181.495 455.701C-182.971 432.021 -185.658 388.098 -157.953 356.268Z" fill="url(#paint0_linear_50_330)"/>
</g>
<defs>
<linearGradient id="paint0_linear_50_330" x1="426.823" y1="69.8268" x2="192.583" y2="775.635" gradientUnits="userSpaceOnUse">
<stop stop-color="#F3F7FF"/>
<stop offset="1" stop-color="#DEEEFE"/>
</linearGradient>
<clipPath id="clip0_50_330">
<rect width="937.962" height="671.376" fill="white" transform="translate(-23.4224) rotate(21.4558)"/>
</clipPath>
</defs>
</svg>
