<svg width="148" height="37" viewBox="0 0 148 37" fill="none" xmlns="http://www.w3.org/2000/svg">
<path d="M47.04 25.5C46.9067 25.5 46.7933 25.4533 46.7 25.36C46.6067 25.2667 46.56 25.1533 46.56 25.02V11.98C46.56 11.8467 46.6067 11.7333 46.7 11.64C46.7933 11.5467 46.9067 11.5 47.04 11.5H48.9C49.0333 11.5 49.1467 11.5467 49.24 11.64C49.3333 11.7333 49.38 11.8467 49.38 11.98V23.12H55.72C55.8667 23.12 55.9867 23.1667 56.08 23.26C56.1733 23.3533 56.22 23.4733 56.22 23.62V25.02C56.22 25.1533 56.1733 25.2667 56.08 25.36C55.9867 25.4533 55.8667 25.5 55.72 25.5H47.04ZM60.9416 25.7C60.2482 25.7 59.6216 25.5667 59.0616 25.3C58.5016 25.02 58.0549 24.6533 57.7216 24.2C57.4016 23.7333 57.2416 23.2133 57.2416 22.64C57.2416 21.7067 57.6149 20.9667 58.3616 20.42C59.1216 19.86 60.1216 19.4867 61.3616 19.3L64.1016 18.9V18.48C64.1016 17.92 63.9616 17.4867 63.6816 17.18C63.4016 16.8733 62.9216 16.72 62.2416 16.72C61.7616 16.72 61.3682 16.82 61.0616 17.02C60.7682 17.2067 60.5482 17.46 60.4016 17.78C60.2949 17.9533 60.1416 18.04 59.9416 18.04H58.3616C58.2149 18.04 58.1016 18 58.0216 17.92C57.9549 17.84 57.9216 17.7333 57.9216 17.6C57.9349 17.3867 58.0216 17.1267 58.1816 16.82C58.3416 16.5133 58.5949 16.22 58.9416 15.94C59.2882 15.6467 59.7349 15.4 60.2816 15.2C60.8282 15 61.4882 14.9 62.2616 14.9C63.1016 14.9 63.8082 15.0067 64.3816 15.22C64.9682 15.42 65.4349 15.6933 65.7816 16.04C66.1282 16.3867 66.3816 16.7933 66.5416 17.26C66.7016 17.7267 66.7816 18.22 66.7816 18.74V25.02C66.7816 25.1533 66.7349 25.2667 66.6416 25.36C66.5482 25.4533 66.4349 25.5 66.3016 25.5H64.6816C64.5349 25.5 64.4149 25.4533 64.3216 25.36C64.2416 25.2667 64.2016 25.1533 64.2016 25.02V24.24C64.0282 24.4933 63.7949 24.7333 63.5016 24.96C63.2082 25.1733 62.8482 25.3533 62.4216 25.5C62.0082 25.6333 61.5149 25.7 60.9416 25.7ZM61.6216 23.8C62.0882 23.8 62.5082 23.7 62.8816 23.5C63.2682 23.3 63.5682 22.9933 63.7816 22.58C64.0082 22.1533 64.1216 21.62 64.1216 20.98V20.56L62.1216 20.88C61.3349 21 60.7482 21.1933 60.3616 21.46C59.9749 21.7267 59.7816 22.0533 59.7816 22.44C59.7816 22.7333 59.8682 22.9867 60.0416 23.2C60.2282 23.4 60.4616 23.5533 60.7416 23.66C61.0216 23.7533 61.3149 23.8 61.6216 23.8ZM73.2873 25.7C72.4873 25.7 71.8007 25.6067 71.2273 25.42C70.6673 25.2333 70.2073 25 69.8473 24.72C69.4873 24.44 69.2207 24.16 69.0473 23.88C68.874 23.6 68.7807 23.3667 68.7673 23.18C68.754 23.0333 68.794 22.92 68.8873 22.84C68.994 22.7467 69.1073 22.7 69.2273 22.7H70.8073C70.8607 22.7 70.9073 22.7067 70.9473 22.72C70.9873 22.7333 71.0407 22.7733 71.1073 22.84C71.2807 22.9867 71.4607 23.14 71.6473 23.3C71.8473 23.46 72.0807 23.6 72.3473 23.72C72.614 23.8267 72.9473 23.88 73.3473 23.88C73.8673 23.88 74.3007 23.78 74.6473 23.58C75.0073 23.3667 75.1873 23.0667 75.1873 22.68C75.1873 22.4 75.1073 22.1733 74.9473 22C74.8007 21.8267 74.5207 21.6733 74.1073 21.54C73.694 21.3933 73.1073 21.24 72.3473 21.08C71.6007 20.9067 70.9807 20.6867 70.4873 20.42C69.994 20.1533 69.6273 19.82 69.3873 19.42C69.1473 19.02 69.0273 18.5533 69.0273 18.02C69.0273 17.5 69.1807 17.0067 69.4873 16.54C69.8073 16.06 70.274 15.6667 70.8873 15.36C71.514 15.0533 72.2873 14.9 73.2073 14.9C73.9273 14.9 74.554 14.9933 75.0873 15.18C75.6207 15.3533 76.0607 15.5733 76.4073 15.84C76.7673 16.1067 77.0407 16.38 77.2273 16.66C77.414 16.9267 77.514 17.16 77.5273 17.36C77.5407 17.5067 77.5007 17.6267 77.4073 17.72C77.314 17.8 77.2073 17.84 77.0873 17.84H75.6073C75.5407 17.84 75.4807 17.8267 75.4273 17.8C75.374 17.7733 75.3207 17.74 75.2673 17.7C75.1207 17.5667 74.9607 17.4267 74.7873 17.28C74.614 17.1333 74.4007 17.0067 74.1473 16.9C73.9073 16.78 73.5873 16.72 73.1873 16.72C72.6807 16.72 72.294 16.8333 72.0273 17.06C71.7607 17.2733 71.6273 17.5467 71.6273 17.88C71.6273 18.1067 71.6873 18.3067 71.8073 18.48C71.9407 18.64 72.2007 18.7933 72.5873 18.94C72.974 19.0867 73.5607 19.24 74.3473 19.4C75.2407 19.56 75.9473 19.8 76.4673 20.12C77.0007 20.4267 77.374 20.7867 77.5873 21.2C77.814 21.6 77.9273 22.0467 77.9273 22.54C77.9273 23.14 77.7473 23.68 77.3873 24.16C77.0407 24.64 76.5207 25.02 75.8273 25.3C75.1473 25.5667 74.3007 25.7 73.2873 25.7ZM80.4919 25.5C80.3585 25.5 80.2452 25.4533 80.1519 25.36C80.0585 25.2667 80.0119 25.1533 80.0119 25.02V11.78C80.0119 11.6467 80.0585 11.5333 80.1519 11.44C80.2452 11.3467 80.3585 11.3 80.4919 11.3H82.1519C82.2852 11.3 82.3985 11.3467 82.4919 11.44C82.5852 11.5333 82.6319 11.6467 82.6319 11.78V25.02C82.6319 25.1533 82.5852 25.2667 82.4919 25.36C82.3985 25.4533 82.2852 25.5 82.1519 25.5H80.4919ZM89.7648 25.7C88.2848 25.7 87.1115 25.2733 86.2448 24.42C85.3782 23.5667 84.9115 22.3533 84.8448 20.78C84.8315 20.6467 84.8248 20.48 84.8248 20.28C84.8248 20.0667 84.8315 19.9 84.8448 19.78C84.8982 18.78 85.1248 17.9133 85.5248 17.18C85.9382 16.4467 86.5048 15.8867 87.2248 15.5C87.9448 15.1 88.7915 14.9 89.7648 14.9C90.8448 14.9 91.7515 15.1267 92.4848 15.58C93.2182 16.02 93.7715 16.64 94.1448 17.44C94.5182 18.2267 94.7048 19.14 94.7048 20.18V20.6C94.7048 20.7333 94.6582 20.8467 94.5648 20.94C94.4715 21.0333 94.3515 21.08 94.2048 21.08H87.5648C87.5648 21.08 87.5648 21.1 87.5648 21.14C87.5648 21.18 87.5648 21.2133 87.5648 21.24C87.5782 21.7067 87.6648 22.14 87.8248 22.54C87.9982 22.9267 88.2448 23.24 88.5648 23.48C88.8982 23.72 89.2915 23.84 89.7448 23.84C90.1182 23.84 90.4315 23.7867 90.6848 23.68C90.9382 23.56 91.1448 23.4267 91.3048 23.28C91.4648 23.1333 91.5782 23.0133 91.6448 22.92C91.7648 22.76 91.8582 22.6667 91.9248 22.64C92.0048 22.6 92.1182 22.58 92.2648 22.58H93.9848C94.1182 22.58 94.2248 22.62 94.3048 22.7C94.3982 22.78 94.4382 22.88 94.4248 23C94.4115 23.2133 94.2982 23.4733 94.0848 23.78C93.8848 24.0867 93.5915 24.3867 93.2048 24.68C92.8182 24.9733 92.3315 25.22 91.7448 25.42C91.1715 25.6067 90.5115 25.7 89.7648 25.7ZM87.5648 19.4H91.9848V19.34C91.9848 18.82 91.8982 18.3667 91.7248 17.98C91.5515 17.5933 91.2982 17.2867 90.9648 17.06C90.6315 16.8333 90.2315 16.72 89.7648 16.72C89.2982 16.72 88.8982 16.8333 88.5648 17.06C88.2315 17.2867 87.9782 17.5933 87.8048 17.98C87.6448 18.3667 87.5648 18.82 87.5648 19.34V19.4ZM100.768 25.7C99.9678 25.7 99.2811 25.6067 98.7078 25.42C98.1478 25.2333 97.6878 25 97.3278 24.72C96.9678 24.44 96.7011 24.16 96.5278 23.88C96.3545 23.6 96.2611 23.3667 96.2478 23.18C96.2345 23.0333 96.2745 22.92 96.3678 22.84C96.4745 22.7467 96.5878 22.7 96.7078 22.7H98.2878C98.3411 22.7 98.3878 22.7067 98.4278 22.72C98.4678 22.7333 98.5211 22.7733 98.5878 22.84C98.7611 22.9867 98.9411 23.14 99.1278 23.3C99.3278 23.46 99.5611 23.6 99.8278 23.72C100.094 23.8267 100.428 23.88 100.828 23.88C101.348 23.88 101.781 23.78 102.128 23.58C102.488 23.3667 102.668 23.0667 102.668 22.68C102.668 22.4 102.588 22.1733 102.428 22C102.281 21.8267 102.001 21.6733 101.588 21.54C101.174 21.3933 100.588 21.24 99.8278 21.08C99.0811 20.9067 98.4611 20.6867 97.9678 20.42C97.4745 20.1533 97.1078 19.82 96.8678 19.42C96.6278 19.02 96.5078 18.5533 96.5078 18.02C96.5078 17.5 96.6611 17.0067 96.9678 16.54C97.2878 16.06 97.7545 15.6667 98.3678 15.36C98.9945 15.0533 99.7678 14.9 100.688 14.9C101.408 14.9 102.034 14.9933 102.568 15.18C103.101 15.3533 103.541 15.5733 103.888 15.84C104.248 16.1067 104.521 16.38 104.708 16.66C104.894 16.9267 104.994 17.16 105.008 17.36C105.021 17.5067 104.981 17.6267 104.888 17.72C104.794 17.8 104.688 17.84 104.568 17.84H103.088C103.021 17.84 102.961 17.8267 102.908 17.8C102.854 17.7733 102.801 17.74 102.748 17.7C102.601 17.5667 102.441 17.4267 102.268 17.28C102.094 17.1333 101.881 17.0067 101.628 16.9C101.388 16.78 101.068 16.72 100.668 16.72C100.161 16.72 99.7745 16.8333 99.5078 17.06C99.2411 17.2733 99.1078 17.5467 99.1078 17.88C99.1078 18.1067 99.1678 18.3067 99.2878 18.48C99.4211 18.64 99.6811 18.7933 100.068 18.94C100.454 19.0867 101.041 19.24 101.828 19.4C102.721 19.56 103.428 19.8 103.948 20.12C104.481 20.4267 104.854 20.7867 105.068 21.2C105.294 21.6 105.408 22.0467 105.408 22.54C105.408 23.14 105.228 23.68 104.868 24.16C104.521 24.64 104.001 25.02 103.308 25.3C102.628 25.5667 101.781 25.7 100.768 25.7ZM111.552 25.5C111.326 25.5 111.146 25.44 111.012 25.32C110.879 25.2 110.786 25.06 110.732 24.9L106.652 12.1C106.626 12.0333 106.612 11.9733 106.612 11.92C106.612 11.8133 106.652 11.72 106.732 11.64C106.826 11.5467 106.932 11.5 107.052 11.5H109.532C109.746 11.5 109.912 11.56 110.032 11.68C110.152 11.8 110.226 11.9133 110.252 12.02L113.072 21.26L115.912 12.02C115.952 11.9133 116.026 11.8 116.132 11.68C116.252 11.56 116.419 11.5 116.632 11.5H119.112C119.232 11.5 119.332 11.5467 119.412 11.64C119.506 11.72 119.552 11.8133 119.552 11.92C119.552 11.9733 119.539 12.0333 119.512 12.1L115.432 24.9C115.379 25.06 115.286 25.2 115.152 25.32C115.032 25.44 114.852 25.5 114.612 25.5H111.552ZM121.92 25.5C121.773 25.5 121.653 25.4533 121.56 25.36C121.466 25.2667 121.42 25.1467 121.42 25V12C121.42 11.8533 121.466 11.7333 121.56 11.64C121.653 11.5467 121.773 11.5 121.92 11.5H127.52C128.626 11.5 129.586 11.6733 130.4 12.02C131.226 12.3533 131.866 12.86 132.32 13.54C132.786 14.22 133.02 15.08 133.02 16.12C133.02 17.1467 132.786 17.9933 132.32 18.66C131.866 19.3267 131.226 19.82 130.4 20.14C129.586 20.46 128.626 20.62 127.52 20.62H125.14V25C125.14 25.1467 125.086 25.2667 124.98 25.36C124.886 25.4533 124.766 25.5 124.62 25.5H121.92ZM125.08 17.86H127.42C127.993 17.86 128.446 17.7133 128.78 17.42C129.126 17.1267 129.3 16.68 129.3 16.08C129.3 15.5733 129.153 15.1467 128.86 14.8C128.566 14.4533 128.086 14.28 127.42 14.28H125.08V17.86ZM135.435 25.5C135.288 25.5 135.168 25.4533 135.075 25.36C134.982 25.2667 134.935 25.1467 134.935 25V12C134.935 11.8533 134.982 11.7333 135.075 11.64C135.168 11.5467 135.288 11.5 135.435 11.5H137.555C137.782 11.5 137.942 11.5533 138.035 11.66C138.142 11.7533 138.208 11.8267 138.235 11.88L143.115 19.58V12C143.115 11.8533 143.162 11.7333 143.255 11.64C143.348 11.5467 143.468 11.5 143.615 11.5H146.015C146.162 11.5 146.282 11.5467 146.375 11.64C146.468 11.7333 146.515 11.8533 146.515 12V25C146.515 25.1333 146.468 25.2533 146.375 25.36C146.282 25.4533 146.162 25.5 146.015 25.5H143.875C143.662 25.5 143.502 25.4467 143.395 25.34C143.302 25.2333 143.242 25.16 143.215 25.12L138.335 17.72V25C138.335 25.1467 138.288 25.2667 138.195 25.36C138.102 25.4533 137.982 25.5 137.835 25.5H135.435Z" fill="#0B132A"/>
<path d="M31.1473 14.0315L31.1255 14.0098C31.1238 14.0085 31.1224 14.0069 31.1215 14.005L17.5006 0.383789L3.87983 14.0047C3.87826 14.0063 3.8758 14.0094 3.8758 14.0094L3.85333 14.0312C1.77053 16.1257 0.447586 18.8563 0.0948177 21.789C-0.25795 24.7217 0.379698 27.6882 1.90639 30.2169C3.43309 32.7457 5.76122 34.6915 8.52069 35.745C11.2802 36.7985 14.3126 36.8995 17.136 36.0315C17.3735 35.9589 17.6275 35.9589 17.8651 36.0315C20.6882 36.8991 23.7205 36.7982 26.4798 35.7445C29.2391 34.6908 31.567 32.7451 33.0936 30.2166C34.6202 27.688 35.2579 24.7217 34.9053 21.7892C34.5526 18.8566 33.2299 16.126 31.1473 14.0315ZM8.7232 23.0136C8.65689 23.0799 8.6043 23.1587 8.56844 23.2452C8.53257 23.3318 8.5141 23.4246 8.51412 23.5184C8.53835 25.9224 9.21776 28.2742 10.4792 30.3209C10.5079 30.3673 10.5211 30.4216 10.517 30.476C10.513 30.5303 10.4918 30.582 10.4566 30.6237C10.4213 30.6654 10.3738 30.6948 10.3209 30.7078C10.2679 30.7208 10.2122 30.7168 10.1616 30.6962C9.21332 30.2973 8.35182 29.7174 7.62531 28.9891C6.13646 27.5 5.29946 25.4808 5.2981 23.375C5.29675 21.2693 6.13117 19.249 7.61812 17.7581L17.5006 7.87652L27.3826 17.7581C28.8698 19.2488 29.7045 21.2691 29.703 23.375C29.7018 25.4808 28.8647 27.5 27.3757 28.9891C26.6492 29.7174 25.7877 30.2973 24.8396 30.6962C24.7889 30.7168 24.7332 30.7208 24.6802 30.7078C24.6273 30.6948 24.5798 30.6652 24.5445 30.6237C24.5093 30.582 24.488 30.5303 24.484 30.4758C24.4799 30.4215 24.4931 30.3671 24.5218 30.3207C25.7835 28.2742 26.4633 25.9224 26.4879 23.5184C26.4879 23.4246 26.4692 23.3318 26.4332 23.2451C26.3971 23.1584 26.3444 23.0797 26.2779 23.0134L21.6037 18.0555C21.5571 18.0167 21.4985 17.9954 21.4378 17.9954C21.3773 17.9954 21.3186 18.0167 21.2721 18.0555C21.2255 18.0942 21.1942 18.1482 21.1833 18.2078C21.1724 18.2675 21.1828 18.3288 21.2127 18.3816C23.0281 21.6668 21.467 26.3855 18.8637 28.9891L18.85 29.0029C18.4907 29.3583 18.0056 29.5576 17.5002 29.5574C16.9948 29.5572 16.5098 29.3576 16.1508 29.002L16.1382 28.9891C13.5339 26.3855 11.9736 21.6673 13.7893 18.3823C13.8192 18.3295 13.8296 18.2682 13.8187 18.2085C13.8079 18.1489 13.7764 18.0949 13.7299 18.0562C13.6834 18.0174 13.6247 17.9961 13.5642 17.9961C13.5036 17.9961 13.4449 18.0174 13.3984 18.0562L8.7232 23.0136Z" fill="#F53838"/>
</svg>
